<svg version="1.1" xmlns="http://www.w3.org/2000/svg" xmlns:xlink="http://www.w3.org/1999/xlink" width="24" height="24" viewBox="0,0,256,256"><g fill="#fa5252" fill-rule="nonzero" stroke="none" stroke-width="1" stroke-linecap="butt" stroke-linejoin="miter" stroke-miterlimit="10" stroke-dasharray="" stroke-dashoffset="0" font-family="none" font-weight="none" font-size="none" text-anchor="none" style="mix-blend-mode: normal"><g transform="translate(-5.33333,0) scale(10.66667,10.66667)"><path d="M6,3c0.55228,0 1,0.44772 1,1v0.88c1.06,-0.44 2.5,-0.88 4,-0.88c3,0 3,2 5,2c3,0 4,-2 4,-2v8c0,0 -1,2 -4,2c-3,0 -3,-2 -5,-2c-3,0 -4,2 -4,2v7h-2v-17c0,-0.55228 0.44772,-1 1,-1z"></path></g></g></svg>