<svg version="1.1" xmlns="http://www.w3.org/2000/svg" xmlns:xlink="http://www.w3.org/1999/xlink" width="24" height="24" viewBox="0,0,256,256"><g fill="#339af0" fill-rule="nonzero" stroke="none" stroke-width="1" stroke-linecap="butt" stroke-linejoin="miter" stroke-miterlimit="10" stroke-dasharray="" stroke-dashoffset="0" font-family="none" font-weight="none" font-size="none" text-anchor="none" style="mix-blend-mode: normal"><g transform="scale(10.66667,10.66667)"><path d="M12,2c-3.86,0 -7,3.14 -7,7c0,5.25 7,13 7,13c0,0 7,-7.75 7,-13c0,-3.86 -3.14,-7 -7,-7M12.88,15.75h-1.75v-1.75h1.75M12.88,12.88h-1.75c0,-2.84 2.62,-2.62 2.62,-4.38c0,-0.9665 -0.7835,-1.75 -1.75,-1.75c-0.9665,0 -1.75,0.7835 -1.75,1.75h-1.75c0,-1.933 1.567,-3.5 3.5,-3.5c1.933,0 3.5,1.567 3.5,3.5c0,2.19 -2.62,2.41 -2.62,4.38z"></path></g></g></svg>